<svg xmlns="http://www.w3.org/2000/svg" viewBox="0 0 64.87 64.87"><defs><style>.cls-1{fill:#fff;}</style></defs><g id="Layer_2" data-name="Layer 2"><g id="OBJECTS"><circle cx="32.44" cy="32.44" r="32.44"/><path class="cls-1" d="M32.44,13.91a19.18,19.18,0,0,0-6.07,37.38c1,.17,1.27-.42,1.27-.93V46.79C22.31,48,21.2,44.53,21.2,44.53a5.12,5.12,0,0,0-2.13-2.81c-1.74-1.19.13-1.16.13-1.16a4,4,0,0,1,2.94,2,4.08,4.08,0,0,0,5.58,1.59,4,4,0,0,1,1.22-2.56c-4.26-.49-8.74-2.14-8.74-9.48a7.44,7.44,0,0,1,2-5.15,7,7,0,0,1,.19-5.08s1.61-.51,5.28,2a18,18,0,0,1,9.6,0c3.66-2.48,5.27-2,5.27-2a6.91,6.91,0,0,1,.19,5.08,7.39,7.39,0,0,1,2,5.15c0,7.36-4.48,9-8.75,9.46a4.62,4.62,0,0,1,1.31,3.55v5.26c0,.51.31,1.11,1.28.93a19.18,19.18,0,0,0-6.07-37.38Z"/></g></g></svg>