<svg xmlns="http://www.w3.org/2000/svg" viewBox="0 0 64.87 64.87"><defs><style>.cls-1{fill:#fff;}</style></defs><g id="Layer_2" data-name="Layer 2"><g id="OBJECTS"><circle cx="32.44" cy="32.44" r="32.44"/><path class="cls-1" d="M32.44,19.91c4.08,0,4.56,0,6.17.09a8.84,8.84,0,0,1,2.84.52,5.09,5.09,0,0,1,2.9,2.9,8.49,8.49,0,0,1,.53,2.84c.07,1.61.08,2.1.08,6.18s0,4.56-.08,6.17a8.49,8.49,0,0,1-.53,2.84,5,5,0,0,1-2.9,2.9,8.49,8.49,0,0,1-2.84.53C37,45,36.52,45,32.44,45s-4.57,0-6.18-.08a8.49,8.49,0,0,1-2.84-.53,5.09,5.09,0,0,1-2.9-2.9A8.84,8.84,0,0,1,20,38.61c-.08-1.61-.09-2.09-.09-6.17s0-4.57.09-6.18a8.84,8.84,0,0,1,.52-2.84,5.17,5.17,0,0,1,2.9-2.9A8.84,8.84,0,0,1,26.26,20c1.61-.08,2.1-.09,6.18-.09m0-2.75c-4.15,0-4.67,0-6.3.09a11,11,0,0,0-3.71.71A7.77,7.77,0,0,0,18,22.43a11,11,0,0,0-.71,3.71c-.08,1.63-.09,2.15-.09,6.3s0,4.67.09,6.3A11.13,11.13,0,0,0,18,42.45a7.85,7.85,0,0,0,4.47,4.47,11.55,11.55,0,0,0,3.71.71c1.63.07,2.15.09,6.3.09s4.67,0,6.3-.09a11.67,11.67,0,0,0,3.71-.71,7.52,7.52,0,0,0,2.7-1.77,7.66,7.66,0,0,0,1.77-2.7,11.67,11.67,0,0,0,.71-3.71c.07-1.63.09-2.15.09-6.3s0-4.67-.09-6.3a11.55,11.55,0,0,0-.71-3.71,7.6,7.6,0,0,0-1.77-2.71A7.49,7.49,0,0,0,42.45,18a11.13,11.13,0,0,0-3.71-.71c-1.63-.08-2.15-.09-6.3-.09"/><path class="cls-1" d="M32.44,24.59a7.85,7.85,0,1,0,7.84,7.85,7.84,7.84,0,0,0-7.84-7.85m0,12.94a5.1,5.1,0,1,1,5.09-5.09,5.09,5.09,0,0,1-5.09,5.09"/><path class="cls-1" d="M42.43,24.28a1.84,1.84,0,1,1-1.84-1.83,1.83,1.83,0,0,1,1.84,1.83"/></g></g></svg>