<svg xmlns="http://www.w3.org/2000/svg" viewBox="0 0 64.87 64.87"><defs><style>.cls-1{fill:#eff0f0;}</style></defs><g id="Layer_2" data-name="Layer 2"><g id="OBJECTS"><circle cx="32.44" cy="32.44" r="32.44"/><path class="cls-1" d="M47.24,35.64v11H40.9V36.37c0-2.57-.92-4.32-3.22-4.32a3.48,3.48,0,0,0-3.26,2.32,4.54,4.54,0,0,0-.21,1.55V46.59H27.86s.09-17.31,0-19.1h6.35V30.2l0,.06h0V30.2A6.32,6.32,0,0,1,39.94,27c4.17,0,7.3,2.73,7.3,8.6Zm-26-17.35a3.31,3.31,0,1,0-.08,6.6h0a3.31,3.31,0,1,0,0-6.6ZM18,46.59h6.34V27.49H18Z"/></g></g></svg>